<mxfile host="app.diagrams.net" modified="2024-04-06T10:39:11.174Z" agent="Mozilla/5.0 (Windows NT 10.0; Win64; x64) AppleWebKit/537.36 (KHTML, like Gecko) Chrome/123.0.0.0 Safari/537.36" etag="aQq6lojzK09fmGooNlzL" version="24.2.2" type="device">
  <diagram name="Page-1" id="KslSSYi9vx0VabdfKx2l">
    <mxGraphModel dx="1050" dy="565" grid="1" gridSize="10" guides="1" tooltips="1" connect="1" arrows="1" fold="1" page="1" pageScale="1" pageWidth="1169" pageHeight="827" math="0" shadow="0">
      <root>
        <mxCell id="0" />
        <mxCell id="1" parent="0" />
        <mxCell id="cALgGh9xUV9CJRSEQutY-1" value="" style="rounded=0;whiteSpace=wrap;html=1;" parent="1" vertex="1">
          <mxGeometry x="120" y="80" width="880" height="600" as="geometry" />
        </mxCell>
        <mxCell id="cALgGh9xUV9CJRSEQutY-2" value="" style="rounded=0;whiteSpace=wrap;html=1;" parent="1" vertex="1">
          <mxGeometry x="120" y="80" width="880" height="50" as="geometry" />
        </mxCell>
        <mxCell id="cALgGh9xUV9CJRSEQutY-3" value="Текст з посиланням" style="text;html=1;align=center;verticalAlign=middle;whiteSpace=wrap;rounded=0;" parent="1" vertex="1">
          <mxGeometry x="910" y="90" width="60" height="30" as="geometry" />
        </mxCell>
        <mxCell id="cALgGh9xUV9CJRSEQutY-4" value="Текст" style="text;html=1;align=center;verticalAlign=middle;whiteSpace=wrap;rounded=0;fontSize=23;" parent="1" vertex="1">
          <mxGeometry x="140" y="90" width="60" height="30" as="geometry" />
        </mxCell>
        <mxCell id="cALgGh9xUV9CJRSEQutY-5" value="Текст з посиланням" style="text;html=1;align=center;verticalAlign=middle;whiteSpace=wrap;rounded=0;" parent="1" vertex="1">
          <mxGeometry x="220" y="90" width="60" height="30" as="geometry" />
        </mxCell>
        <mxCell id="cALgGh9xUV9CJRSEQutY-6" value="Текст з посиланням" style="text;html=1;align=center;verticalAlign=middle;whiteSpace=wrap;rounded=0;" parent="1" vertex="1">
          <mxGeometry x="310" y="90" width="60" height="30" as="geometry" />
        </mxCell>
        <mxCell id="cALgGh9xUV9CJRSEQutY-7" value="Текст з посиланням" style="text;html=1;align=center;verticalAlign=middle;whiteSpace=wrap;rounded=0;" parent="1" vertex="1">
          <mxGeometry x="400" y="90" width="60" height="30" as="geometry" />
        </mxCell>
        <mxCell id="cALgGh9xUV9CJRSEQutY-34" value="" style="rounded=0;whiteSpace=wrap;html=1;fillColor=none;" parent="1" vertex="1">
          <mxGeometry x="250" y="140" width="620" height="540" as="geometry" />
        </mxCell>
        <mxCell id="cALgGh9xUV9CJRSEQutY-8" value="&lt;font style=&quot;font-size: 28px;&quot;&gt;Текст&lt;/font&gt;" style="text;html=1;align=center;verticalAlign=middle;whiteSpace=wrap;rounded=0;" parent="1" vertex="1">
          <mxGeometry x="530" y="150" width="60" height="30" as="geometry" />
        </mxCell>
        <mxCell id="cALgGh9xUV9CJRSEQutY-37" value="" style="rounded=0;whiteSpace=wrap;html=1;" parent="1" vertex="1">
          <mxGeometry x="270" y="240" width="580" height="150" as="geometry" />
        </mxCell>
        <mxCell id="cALgGh9xUV9CJRSEQutY-41" value="&lt;font style=&quot;font-size: 24px;&quot;&gt;Текст&lt;/font&gt;" style="text;html=1;align=center;verticalAlign=middle;whiteSpace=wrap;rounded=0;" parent="1" vertex="1">
          <mxGeometry x="330" y="260" width="60" height="30" as="geometry" />
        </mxCell>
        <mxCell id="cALgGh9xUV9CJRSEQutY-9" value="Текст" style="text;html=1;align=center;verticalAlign=middle;whiteSpace=wrap;rounded=0;fontSize=18;" parent="1" vertex="1">
          <mxGeometry x="330" y="320" width="60" height="30" as="geometry" />
        </mxCell>
        <mxCell id="cALgGh9xUV9CJRSEQutY-42" value="Кнопка" style="rounded=1;whiteSpace=wrap;html=1;" parent="1" vertex="1">
          <mxGeometry x="740" y="320" width="90" height="25" as="geometry" />
        </mxCell>
        <mxCell id="cALgGh9xUV9CJRSEQutY-44" value="" style="rounded=0;whiteSpace=wrap;html=1;" parent="1" vertex="1">
          <mxGeometry x="270" y="400" width="580" height="150" as="geometry" />
        </mxCell>
        <mxCell id="cALgGh9xUV9CJRSEQutY-45" value="&lt;font style=&quot;font-size: 24px;&quot;&gt;Текст&lt;/font&gt;" style="text;html=1;align=center;verticalAlign=middle;whiteSpace=wrap;rounded=0;" parent="1" vertex="1">
          <mxGeometry x="330" y="420" width="60" height="30" as="geometry" />
        </mxCell>
        <mxCell id="cALgGh9xUV9CJRSEQutY-46" value="Текст" style="text;html=1;align=center;verticalAlign=middle;whiteSpace=wrap;rounded=0;fontSize=18;" parent="1" vertex="1">
          <mxGeometry x="330" y="480" width="60" height="30" as="geometry" />
        </mxCell>
        <mxCell id="cALgGh9xUV9CJRSEQutY-47" value="Кнопка" style="rounded=1;whiteSpace=wrap;html=1;" parent="1" vertex="1">
          <mxGeometry x="740" y="480" width="90" height="25" as="geometry" />
        </mxCell>
        <mxCell id="cALgGh9xUV9CJRSEQutY-48" value="" style="rounded=0;whiteSpace=wrap;html=1;" parent="1" vertex="1">
          <mxGeometry x="270" y="560" width="580" height="120" as="geometry" />
        </mxCell>
        <mxCell id="cALgGh9xUV9CJRSEQutY-49" value="&lt;font style=&quot;font-size: 24px;&quot;&gt;Текст&lt;/font&gt;" style="text;html=1;align=center;verticalAlign=middle;whiteSpace=wrap;rounded=0;" parent="1" vertex="1">
          <mxGeometry x="330" y="580" width="60" height="30" as="geometry" />
        </mxCell>
        <mxCell id="cALgGh9xUV9CJRSEQutY-50" value="Текст" style="text;html=1;align=center;verticalAlign=middle;whiteSpace=wrap;rounded=0;fontSize=18;" parent="1" vertex="1">
          <mxGeometry x="330" y="640" width="60" height="30" as="geometry" />
        </mxCell>
        <mxCell id="cALgGh9xUV9CJRSEQutY-51" value="Кнопка" style="rounded=1;whiteSpace=wrap;html=1;" parent="1" vertex="1">
          <mxGeometry x="740" y="640" width="90" height="25" as="geometry" />
        </mxCell>
      </root>
    </mxGraphModel>
  </diagram>
</mxfile>
